<?xml version="1.0" encoding="UTF-8" standalone="no"?>
<!DOCTYPE svg PUBLIC "-//W3C//DTD SVG 1.1//EN" "http://www.w3.org/Graphics/SVG/1.1/DTD/svg11.dtd">
<svg width="100%" height="100%" viewBox="0 0 1024 1024" version="1.1" xmlns="http://www.w3.org/2000/svg" xmlns:xlink="http://www.w3.org/1999/xlink" xml:space="preserve" xmlns:serif="http://www.serif.com/" style="fill-rule:evenodd;clip-rule:evenodd;stroke-linecap:round;stroke-linejoin:round;stroke-miterlimit:1.5;">
    <g id="cat_walk" transform="matrix(1.189192,0,0,1.189192,-64.929277,-97.604318)">
        <g id="outline">
            <g transform="matrix(0.987379,0.158374,-0.158374,0.987379,79.991664,-117.285891)">
                <path d="M810.144,513.285C803.89,501.661 789.964,478.1 771.935,462.87C783.41,458.367 785.665,439.811 787.658,427.184C790.158,411.351 788.283,386.767 785.158,368.434C782.147,350.767 769.95,334.059 768.908,317.184C767.867,300.309 769.95,272.392 778.908,267.184C787.867,261.976 812.671,273.606 822.658,285.934C835.992,302.392 855.277,336.883 858.908,365.934C862.658,395.934 853.283,441.976 845.158,465.934C839.16,483.62 811.633,491.066 810.158,509.684C810.066,510.849 810.064,512.051 810.144,513.285Z" style="fill:url(#_Radial1);"/>
                <path d="M769.681,470.805C777.309,457.511 792.564,430.923 792.315,408.978C792.034,384.332 783.587,355.279 768,322.926C758.1,302.377 764.917,278.854 771.363,269.031C777.808,259.208 795.744,259.503 806.673,263.987C817.603,268.471 828.802,283.729 836.939,295.934C845.346,308.545 853.588,323.995 857.117,339.652C861.6,359.549 866.925,392.617 863.842,415.317C860.901,436.977 845.907,461.276 838.621,475.849C833.754,485.583 824.668,497.029 820.125,502.752M820.125,502.752C803.31,492.103 786.496,481.454 769.681,470.805" style="fill:none;stroke:black;stroke-width:21.02px;"/>
            </g>
            <path d="M771.935,462.87C789.964,478.1 803.89,501.661 810.144,513.285C811.493,534.341 836.323,565.065 835.158,592.184C833.7,626.142 806.2,683.226 801.408,713.434C798.264,733.255 802.153,753.821 806.408,773.434C811.2,795.517 828.492,824.892 830.158,845.934C831.619,864.37 824.117,888.226 816.408,899.684C809.749,909.584 795.838,914.478 783.908,914.684C771.825,914.892 755.158,908.017 743.908,900.934C732.686,893.868 725.575,871.559 716.408,872.184C707.242,872.809 700.367,896.559 688.908,904.684C677.45,912.809 661.2,921.351 647.658,920.934C634.117,920.517 616.103,914.248 607.658,902.184C598.908,889.684 599.285,864.693 595.158,845.934C590.575,825.101 587.45,790.309 580.158,777.184C575.231,768.314 561.388,769.017 551.408,767.184C541.2,765.309 528.7,761.279 518.908,765.934C506.2,771.976 486.767,788.132 475.158,803.434C461.408,821.559 449.533,858.017 436.408,874.684C426.25,887.584 410.575,897.601 396.408,903.434C382.405,909.2 365.367,905.101 351.408,909.684C337.45,914.267 327.356,931.927 312.658,930.934C297.242,929.892 269.95,917.601 258.908,903.434C247.867,889.267 251.729,864.813 246.408,845.934C239.95,823.017 228.166,792.833 220.158,765.934C212.033,738.642 204.955,710.154 197.658,682.184C190.158,653.434 171.087,623.68 175.158,593.434C179.533,560.934 198.908,499.059 223.908,487.184C248.908,475.309 295.158,517.184 325.158,522.184C351.103,526.508 379.616,527.27 403.908,517.184C439.533,502.392 508.7,446.142 538.908,433.434C553.304,427.378 569.623,439.331 585.158,440.934C611.408,443.642 665.575,445.934 696.408,449.684C721.232,452.703 754.95,467.184 770.158,463.434C770.774,463.282 771.366,463.093 771.935,462.87Z" style="fill:url(#_Radial2);"/>
            <g>
                <path d="M219.849,487.619C207.145,512.467 181.736,562.163 179.494,598.594C177.252,635.026 197.43,673.138 206.397,706.207C214.659,736.673 225.454,770.382 233.3,797.005C240.07,819.972 249.835,848.289 253.478,865.944C255.972,878.033 248.889,892.304 255.159,902.936C261.605,913.865 276.817,929.229 292.151,931.521C307.485,933.812 333.937,922.395 347.163,916.686" style="fill:none;stroke:black;stroke-width:21.02px;"/>
                <path d="M190.059,645.675C204.312,667.16 232.819,710.13 253.478,731.429C270.581,749.062 296.074,765.898 314.01,773.465C328.506,779.58 350.229,777.745 361.09,776.828" style="fill:none;stroke:black;stroke-width:21.02px;"/>
                <path d="M409.852,714.614C399.95,730.401 380.147,761.975 366.135,781.872C353.483,799.838 332.225,816.622 325.78,833.997C319.734,850.295 321.016,873.791 327.461,886.122C333.907,898.452 350.28,905.919 364.453,907.98C379.866,910.222 404.55,910.207 419.941,899.573C435.354,888.924 444.104,862.239 456.933,844.085C471.785,823.067 496.633,789.999 509.057,773.465" style="fill:none;stroke:black;stroke-width:21.02px;"/>
                <path d="M512.42,775.146C529.235,771.783 546.049,768.42 562.864,765.057" style="fill:none;stroke:black;stroke-width:21.02px;"/>
                <path d="M800.664,719.457C812.072,704.9 811.931,698.017 818.443,682.667C832.874,648.652 840.833,604.946 836.939,573.373C833.25,543.46 817.68,513.169 795.08,493.228C771.26,472.21 729.076,456.046 694.016,447.264C658.957,438.483 611.065,440.539 584.723,440.539C568.315,440.539 546.745,445.022 535.961,447.264" style="fill:none;stroke:black;stroke-width:21.02px;"/>
            </g>
            <path d="M578.623,761.768C584.64,768.009 596.675,780.49 607.658,787.184C624.05,797.173 657.255,809.287 676.972,821.702C694.808,832.932 713.034,846.325 725.964,861.674C738.73,876.83 741.097,905.952 754.548,913.799C768,921.646 794.062,917.722 806.673,908.755C819.284,899.787 829.492,878.027 830.214,859.993C831.054,838.975 816.69,804.929 811.718,782.646C807.545,763.946 800.379,726.296 800.379,726.296" style="fill:none;stroke:black;stroke-width:21.02px;"/>
            <path d="M571.271,763.376C577.933,775.328 591.258,799.233 596.493,818.864C602.097,839.882 595.091,872.67 604.9,889.484C614.708,906.299 639.65,918.91 655.343,919.75C671.037,920.591 688.692,905.178 699.061,894.529C709.029,884.291 714.714,865.334 717.557,855.856" style="fill:none;stroke:black;stroke-width:21.02px;"/>
        </g>
        <g>
            <path d="M125.158,388.434C125.575,375.309 137.45,349.684 136.408,334.684C135.479,321.298 124.959,310.41 118.908,298.434C108.908,278.642 83.7,237.601 76.408,215.934C71.356,200.922 67.867,179.476 75.158,168.434C82.45,157.392 103.924,150.397 120.158,149.684C139.117,148.851 171.825,158.017 188.908,163.434C201.176,167.324 209.881,183.717 222.658,182.184C238.283,180.309 260.647,156.12 282.658,152.184C314.117,146.559 378.492,144.684 411.408,148.434C435.781,151.21 464.533,167.392 480.158,174.684C489.376,178.986 495.141,193.952 505.158,192.184C519.325,189.684 544.95,164.892 565.158,159.684C584.933,154.587 613.283,156.351 626.408,160.934C636.337,164.401 645.57,176.8 643.908,187.184C641.408,202.809 624.117,233.851 611.408,254.684C598.866,275.244 575.783,294.892 567.658,312.184C561.064,326.218 565.323,343.158 562.658,358.434C559.533,376.351 560.473,402.245 548.908,419.684C535.783,439.476 508.629,462.161 483.908,477.184C456.825,493.642 413.7,510.101 386.408,518.434C365.104,524.939 341.802,532.449 320.158,527.184C289.325,519.684 232.45,492.392 201.408,473.434C175.717,457.743 146.617,427.601 133.908,413.434C128.013,406.862 124.878,397.258 125.158,388.434Z" style="fill:url(#_Radial3);"/>
            <path d="M256.841,158.056C215.263,176.93 187.902,222.231 166.043,260.624C144.184,299.017 123.446,355.345 125.688,388.414C127.69,417.94 155.819,441.278 179.494,459.034C205.276,478.371 251.796,493.224 280.381,504.433C303.322,513.43 331.105,524.331 351.002,526.292C367.52,527.921 384.564,522.873 399.764,516.204C427.227,504.153 488.6,471.645 515.783,453.99C533.744,442.325 555.102,430.232 562.864,410.273C570.71,390.095 568.503,358.084 562.864,332.926C555.577,300.418 542.686,246.612 519.146,215.225C495.606,183.838 460.838,153.151 421.622,144.604C377.905,135.076 299.437,138.719 256.841,158.056ZM500.65,188.322C518.399,178.233 553.896,158.056 577.997,154.693C600.641,151.533 637.688,153.011 645.254,168.144C652.821,183.277 633.765,223.632 623.396,245.491C613.787,265.747 593.41,287.527 583.041,299.297C576.964,306.195 566.443,312.806 561.182,316.112M128.519,314.764C117.155,298.43 94.427,265.763 85.862,240.355C77.501,215.55 65.11,177.216 77.13,162.314C89.15,147.412 134.443,148.71 157.981,150.943C179.639,152.997 205.454,168.141 218.361,175.713" style="fill:none;stroke:black;stroke-width:21.02px;"/>
            <g>
                <path d="M491.419,341.755C489.299,337.999 485.057,330.485 479.419,328.755C472.086,326.505 457.003,322.922 447.419,328.255C440.414,332.154 434.669,339.839 430.919,345.755C427.534,351.097 425.169,359.672 424.919,363.755C424.758,366.386 427.003,369.839 429.419,370.255C431.836,370.672 435.906,366.995 439.419,366.255C444.169,365.255 451.752,364.913 457.919,364.255C464.169,363.589 474.003,364.172 476.919,362.255C479.599,360.495 476.433,355.797 475.419,352.755C474.336,349.505 472.541,345.819 470.419,342.755C468.169,339.505 461.753,334.672 461.919,333.255C462.086,331.839 468.586,333.255 471.419,334.255C474.253,335.255 477.003,337.089 478.919,339.255C480.836,341.422 481.836,344.505 482.919,347.255C484.002,350.003 483.586,355.005 485.419,355.755C487.253,356.505 491.697,353.339 493.919,351.755"/>
                <g transform="matrix(0.99142,0.130717,-0.130717,0.99142,-155.58406,-46.068432)">
                    <path d="M491.419,341.755C489.299,337.999 485.057,330.485 479.419,328.755C472.086,326.505 457.003,322.922 447.419,328.255C440.414,332.154 434.669,339.839 430.919,345.755C427.534,351.097 425.169,359.672 424.919,363.755C424.758,366.386 427.003,369.839 429.419,370.255C431.836,370.672 435.906,366.995 439.419,366.255C444.169,365.255 451.752,364.913 457.919,364.255C464.169,363.589 474.003,364.172 476.919,362.255C479.599,360.495 476.433,355.797 475.419,352.755C474.336,349.505 472.541,345.819 470.419,342.755C468.169,339.505 461.753,334.672 461.919,333.255C462.086,331.839 468.586,333.255 471.419,334.255C474.253,335.255 477.003,337.089 478.919,339.255C480.836,341.422 481.836,344.505 482.919,347.255C484.002,350.003 483.586,355.005 485.419,355.755C487.253,356.505 491.697,353.339 493.919,351.755"/>
                </g>
                <path d="M353.919,435.755C351.03,432.783 345.253,426.839 342.419,423.255C340.239,420.497 337.253,417.005 336.919,414.255C336.587,411.517 337.919,407.422 340.419,406.755C342.919,406.089 348.419,409.172 351.919,410.255C355.092,411.237 358.253,413.505 361.419,413.255C364.586,413.005 368.003,410.422 370.919,408.755C373.729,407.15 376.669,403.172 378.919,403.255C381.169,403.339 384.174,406.553 384.419,409.255C384.669,412.005 382.497,416.639 380.419,419.755C378.086,423.255 372.919,427.172 370.419,430.255C368.439,432.698 366.123,435.559 365.419,438.255C364.728,440.905 365.337,443.833 366.195,446.433C367.146,449.314 368.418,453.398 371.125,455.54C374.246,458.011 380.083,460.695 384.919,461.255C389.756,461.815 395.383,454.024 400.144,458.9C404.819,463.689 400.583,466.717 398.859,468.994C396.758,471.767 393.724,472.831 390.681,473.185C387.441,473.562 383.047,472.414 379.419,471.255C375.542,470.017 371.586,466.255 367.419,465.755C363.253,465.255 358.086,467.339 354.419,468.255C351.351,469.022 348.52,470.635 345.419,471.255C341.669,472.005 335.917,475.018 331.919,472.755C328.484,470.811 322.686,467.315 323.788,461.605C324.492,457.963 328.138,457.131 330.919,457.255C333.777,457.383 337.35,462.372 340.933,462.372C344.517,462.372 350.005,459.691 352.419,457.255C354.757,454.897 355.199,450.136 355.419,447.755"/>
            </g>
        </g>
    </g>
    <defs>
        <radialGradient id="_Radial1" cx="0" cy="0" r="1" gradientUnits="userSpaceOnUse" gradientTransform="matrix(43.922171,-1.267206,0.175624,139.337827,815.899484,348.409916)"><stop offset="0" style="stop-color:rgb(255,197,90);stop-opacity:1"/><stop offset="0.64" style="stop-color:rgb(231,149,77);stop-opacity:1"/><stop offset="1" style="stop-color:rgb(189,112,76);stop-opacity:1"/></radialGradient>
        <radialGradient id="_Radial2" cx="0" cy="0" r="1" gradientUnits="userSpaceOnUse" gradientTransform="matrix(330.351937,-3.406847,1.320922,374.605878,529.873317,487.712004)"><stop offset="0" style="stop-color:rgb(255,197,90);stop-opacity:1"/><stop offset="0.64" style="stop-color:rgb(231,149,77);stop-opacity:1"/><stop offset="1" style="stop-color:rgb(189,112,76);stop-opacity:1"/></radialGradient>
        <radialGradient id="_Radial3" cx="0" cy="0" r="1" gradientUnits="userSpaceOnUse" gradientTransform="matrix(276.325647,-1.959255,1.104896,215.433355,368.167016,274.040857)"><stop offset="0" style="stop-color:rgb(255,197,90);stop-opacity:1"/><stop offset="0.64" style="stop-color:rgb(231,149,77);stop-opacity:1"/><stop offset="1" style="stop-color:rgb(189,112,76);stop-opacity:1"/></radialGradient>
    </defs>
</svg>
