<?xml version="1.0" encoding="UTF-8" standalone="no"?>
<!DOCTYPE svg PUBLIC "-//W3C//DTD SVG 1.1//EN" "http://www.w3.org/Graphics/SVG/1.1/DTD/svg11.dtd">
<svg width="100%" height="100%" viewBox="0 0 1912 1684" version="1.1" xmlns="http://www.w3.org/2000/svg" xmlns:xlink="http://www.w3.org/1999/xlink" xml:space="preserve" xmlns:serif="http://www.serif.com/" style="fill-rule:evenodd;clip-rule:evenodd;stroke-linecap:round;stroke-linejoin:round;">
    <g transform="matrix(1,0,0,1,-70.568861,-31.527156)">
        <g transform="matrix(2.448294,0.111004,-0.111004,2.448294,-60.035348,-322.763877)">
            <g transform="matrix(0.999883,-0.015285,0.015285,0.999883,-33.857483,-7.593475)">
                <path d="M222.31,477.66C208.77,491.2 167.17,533.81 196.49,709.76C210.03,790.95 281.86,843.14 341.2,805.67C347.99,801.38 371.6,772.46 371.6,772.46C371.6,772.46 384.51,804.19 409.49,814.14C434.01,823.91 470.27,812.13 504.41,787.16C510.54,782.68 583.22,750.61 682.77,783.8C698.38,789 807.26,777.12 820.74,750.14C834.14,723.36 883.8,691.81 852.71,581.88C830.82,504.43 770.71,457.41 709.69,440.54C635.49,420.03 536.38,430.45 526.29,433.81L222.31,477.66Z" style="fill:url(#_Radial1);stroke:black;stroke-width:21.02px;"/>
                <path d="M484.66,798.52C519.57,764.41 558.11,693.37 548.6,647.45M425.77,724.85C395.94,724.48 377.23,741.1 369.66,774.7C368.33,742.1 359.88,724.25 313.03,716.44" style="fill:none;stroke:black;stroke-width:21.02px;"/>
                <path d="M856.27,708.89C804.79,760.37 707.4,679.04 686.06,725.91C668.7,764.03 711.69,762.44 800.1,778.68C880.51,793.45 891.14,689.73 864.78,676.55L856.27,708.89Z" style="fill:url(#_Radial2);stroke:black;stroke-width:21.02px;"/>
            </g>
            <g transform="matrix(1,-0,0,1,0,0.000031)">
                <path d="M256.84,158.06C215.26,176.93 187.9,222.23 166.04,260.62C144.18,299.02 123.45,355.35 125.69,388.41C127.69,417.94 155.82,441.28 179.49,459.03C205.28,478.37 251.8,493.22 280.38,504.43C303.32,513.43 331.11,524.33 351,526.29C367.52,527.92 384.56,522.87 399.76,516.2C427.23,504.15 488.6,471.65 515.78,453.99C533.74,442.33 555.1,430.23 562.86,410.27C570.71,390.1 568.5,358.08 562.86,332.93C555.58,300.42 542.69,246.61 519.15,215.23C495.61,183.84 460.84,153.15 421.62,144.6C377.91,135.08 299.44,138.72 256.84,158.06ZM500.65,188.32C518.4,178.23 553.9,158.06 578,154.69C600.64,151.53 637.69,153.01 645.25,168.14C652.82,183.28 633.77,223.63 623.4,245.49C613.79,265.75 593.41,287.53 583.04,299.3C576.96,306.2 566.44,312.81 561.18,316.11M128.52,314.76C117.16,298.43 94.43,265.76 85.86,240.36C77.5,215.55 65.11,177.22 77.13,162.31C89.15,147.41 134.44,148.71 157.98,150.94C179.64,153 205.45,168.14 218.36,175.71" style="fill:url(#_Radial3);stroke:black;stroke-width:21.02px;"/>
            </g>
            <g transform="matrix(0.840044,-0.038087,0.038087,0.840044,552.735474,476.607513)">
                <path d="M-68.43,-151.6L-68.52,-151.66C-68.58,-151.7 -69.02,-152.76 -69.84,-154.85C-70.66,-156.94 -71.57,-158.82 -72.57,-160.49C-73.57,-162.17 -74.73,-163.78 -76.04,-165.34C-77.36,-166.9 -78.9,-168.29 -80.66,-169.51C-82.42,-170.73 -84.15,-171.81 -85.86,-172.74C-87.56,-173.67 -89.56,-174.43 -91.85,-174.99C-94.15,-175.56 -96.33,-175.92 -98.39,-176.08C-100.45,-176.24 -102.52,-176.01 -104.6,-175.38C-106.68,-174.75 -108.66,-174.02 -110.54,-173.2C-112.42,-172.37 -114.16,-171.4 -115.78,-170.28C-117.39,-169.15 -118.95,-167.93 -120.45,-166.6C-121.95,-165.28 -123.37,-163.77 -124.73,-162.1C-126.08,-160.42 -127.35,-158.69 -128.53,-156.92L-130.31,-154.25L-132.26,-151.71C-133.56,-150.02 -134.57,-148.27 -135.3,-146.46C-136.03,-144.65 -135.33,-143.76 -133.2,-143.78C-131.08,-143.8 -128.93,-143.9 -126.76,-144.07C-124.58,-144.25 -122.43,-144.33 -120.29,-144.3C-118.16,-144.28 -116.08,-144.23 -114.05,-144.18C-112.03,-144.12 -109.99,-144.13 -107.93,-144.22C-105.87,-144.31 -103.85,-144.35 -101.85,-144.34C-99.85,-144.33 -98.62,-145.37 -98.15,-147.47C-97.69,-149.55 -97.47,-151.63 -97.49,-153.71L-114.69,-154.96L-107.62,-158.59C-105.92,-159.67 -104.11,-160.62 -102.21,-161.42C-100.3,-162.23 -99.04,-161.68 -98.43,-159.76C-97.83,-157.85 -97.51,-155.85 -97.49,-153.75L-97.49,-153.71M-308.68,-156.44L-308.77,-156.49C-308.83,-156.53 -309.27,-157.6 -310.09,-159.69C-310.91,-161.78 -311.82,-163.66 -312.82,-165.33C-313.82,-167 -314.98,-168.62 -316.29,-170.18C-317.61,-171.74 -319.15,-173.13 -320.91,-174.35C-322.67,-175.57 -324.4,-176.64 -326.11,-177.58C-327.81,-178.51 -329.81,-179.26 -332.1,-179.83C-334.4,-180.39 -336.58,-180.76 -338.64,-180.92C-340.7,-181.08 -342.77,-180.85 -344.85,-180.22C-346.93,-179.59 -348.91,-178.86 -350.79,-178.03C-352.67,-177.21 -354.41,-176.24 -356.03,-175.11C-357.64,-173.99 -359.2,-172.77 -360.7,-171.44C-362.2,-170.11 -363.62,-168.61 -364.98,-166.93C-366.33,-165.25 -367.6,-163.53 -368.78,-161.75L-370.56,-159.09L-372.51,-156.55C-373.81,-154.86 -374.82,-153.11 -375.55,-151.3C-376.27,-149.49 -375.58,-148.6 -373.45,-148.61C-371.33,-148.63 -369.18,-148.73 -367,-148.91C-364.83,-149.09 -362.68,-149.16 -360.54,-149.14C-358.41,-149.11 -356.33,-149.07 -354.3,-149.01C-352.27,-148.95 -350.23,-148.97 -348.18,-149.06C-346.12,-149.15 -344.1,-149.19 -342.1,-149.18C-340.1,-149.17 -338.87,-150.21 -338.4,-152.3C-337.94,-154.39 -337.72,-156.47 -337.74,-158.55L-354.94,-159.8L-347.87,-163.43C-346.17,-164.51 -344.36,-165.45 -342.45,-166.26C-340.54,-167.07 -339.29,-166.51 -338.68,-164.6C-338.08,-162.69 -337.76,-160.68 -337.74,-158.59L-337.74,-158.55M-250.2,-94.3C-246.48,-87.07 -241.79,-81.72 -227.03,-77.6C-217.28,-82.79 -213.06,-87.03 -207.54,-97.66M-271.33,-22.63C-266.35,-14.16 -253.88,-12.86 -244.95,-13.96C-228.33,-16.03 -225.93,-26.02 -223.77,-43.85L-226.09,-73.14M-223.77,-43.48C-222.75,-28.6 -210.42,-18.6 -199.2,-16.58C-189.53,-16.58 -181.75,-19.82 -175.86,-26.3" style="fill:none;stroke:black;stroke-width:15px;"/>
            </g>
        </g>
    </g>
    <defs>
        <radialGradient id="_Radial1" cx="0" cy="0" r="1" gradientUnits="userSpaceOnUse" gradientTransform="matrix(338.260101,0,0,194.932175,523.265625,626.414062)"><stop offset="0" style="stop-color:#FFC55A;stop-opacity:1"/><stop offset="0.01" style="stop-color:#FFC55A;stop-opacity:1"/><stop offset="1" style="stop-color:#BD704C;stop-opacity:1"/></radialGradient>
        <radialGradient id="_Radial2" cx="0" cy="0" r="1" gradientUnits="userSpaceOnUse" gradientTransform="matrix(97.693474,0,0,51.782227,781.078125,728.925781)"><stop offset="0" style="stop-color:#FFC55A;stop-opacity:1"/><stop offset="0.01" style="stop-color:#FFC55A;stop-opacity:1"/><stop offset="1" style="stop-color:#BD704C;stop-opacity:1"/></radialGradient>
        <radialGradient id="_Radial3" cx="0" cy="0" r="1" gradientUnits="userSpaceOnUse" gradientTransform="matrix(287.42569,0,0,193.52594,359.5625,333.074219)"><stop offset="0" style="stop-color:#FFC55A;stop-opacity:1"/><stop offset="0.01" style="stop-color:#FFC55A;stop-opacity:1"/><stop offset="1" style="stop-color:#BD704C;stop-opacity:1"/></radialGradient>
    </defs>
</svg>
