<?xml version="1.0" encoding="UTF-8" standalone="no"?>
<!DOCTYPE svg PUBLIC "-//W3C//DTD SVG 1.1//EN" "http://www.w3.org/Graphics/SVG/1.1/DTD/svg11.dtd">
<svg width="100%" height="100%" viewBox="0 0 2986 2987" version="1.1" xmlns="http://www.w3.org/2000/svg" xmlns:xlink="http://www.w3.org/1999/xlink" xml:space="preserve" xmlns:serif="http://www.serif.com/" style="fill-rule:evenodd;clip-rule:evenodd;stroke-linecap:round;stroke-linejoin:round;">
    <g transform="matrix(1,0,0,1,-61.478231,-75.209367)">
        <g transform="matrix(1,0,0,1,-329.710901,12.816716)">
            <g id="cat_walk2" transform="matrix(3.531902,0.503198,-0.503198,3.531902,267.63157,-486.566932)">
                <g transform="matrix(0.990003,-0.141048,0.141048,0.990003,-34.220642,54.559021)">
                    <g transform="matrix(0.912238,0.40966,-0.40966,0.912238,257.865997,-273.40213)">
                        <path d="M769.68,470.81C777.31,457.51 792.56,430.92 792.32,408.98C792.03,384.33 783.59,355.28 768,322.93C758.1,302.38 764.92,278.85 771.36,269.03C777.81,259.21 795.74,259.5 806.67,263.99C817.6,268.47 828.8,283.73 836.94,295.93C845.35,308.55 853.59,324 857.12,339.65C861.6,359.55 866.93,392.62 863.84,415.32C860.9,436.98 845.91,461.28 838.62,475.85C833.75,485.58 824.67,497.03 820.13,502.75M820.13,502.75C803.31,492.1 786.5,481.45 769.68,470.81" style="fill:url(#_Radial1);stroke:black;stroke-width:21.02px;"/>
                    </g>
                    <path d="M206.4,706.21C208.07,745.53 190.66,803.51 189.55,834.51C188.85,854.02 188.4,880.04 199.73,892.19C211.06,904.35 241.77,914.22 257.55,907.46C283.58,896.31 281.4,871.26 295.9,855.27C310.51,839.16 333.65,820.24 345.22,810.79C326.77,731.26 280.69,671.13 191.67,652.63C198.44,670.22 205.62,687.88 206.4,706.21" style="fill:url(#_Radial2);stroke:black;stroke-width:21.02px;"/>
                    <path d="M727.86,872.66C752.63,924.78 808.86,904.74 802.94,848.66C796.42,825.98 785.41,735.74 789.63,750.66C690.51,625.51 683.78,696.81 727.86,872.66Z" style="fill:url(#_Radial3);stroke:black;stroke-width:21.02px;"/>
                    <path d="M204.72,682.41C227.02,736.37 307.71,794.66 350.87,812.41C376.12,822.79 385.89,862.52 397.76,879.6C405.91,891.34 411.77,906.31 422.07,914.91C432.37,923.5 445.93,930.95 459.55,931.16C473.29,931.36 494.52,924.91 504.52,916.16C514.51,907.41 519.32,892.12 519.51,878.66C519.71,863.86 510.55,842.82 505.76,827.41C501.43,813.43 479.43,795.38 490.77,786.16C517.65,764.3 658.43,730.68 649.31,767.2C642.64,793.9 591.32,916.47 678.63,908.53C716.57,905.08 724.89,825.96 785.22,747.2C789.88,744.86 813.58,698.56 820.09,683.21C834.51,649.19 842.46,605.49 838.57,573.91C834.89,544 819.33,513.71 796.74,493.77C772.94,472.75 730.78,456.59 695.74,447.8C660.71,439.02 612.85,441.08 586.53,441.08C570.13,441.08 548.57,445.56 233.54,450.01C170.81,568.94 164.62,620.76 204.72,682.41Z" style="fill:url(#_Radial4);stroke:black;stroke-width:21.02px;"/>
                </g>
                <path d="M256.84,158.06C215.26,176.93 187.9,222.23 166.04,260.62C144.18,299.02 123.45,355.35 125.69,388.41C127.69,417.94 155.82,441.28 179.49,459.03C205.28,478.37 251.8,493.22 280.38,504.43C303.32,513.43 331.11,524.33 351,526.29C367.52,527.92 384.56,522.87 399.76,516.2C427.23,504.15 488.6,471.65 515.78,453.99C533.74,442.33 555.1,430.23 562.86,410.27C570.71,390.1 568.5,358.08 562.86,332.93C555.58,300.42 542.69,246.61 519.15,215.23C495.61,183.84 460.84,153.15 421.62,144.6C377.91,135.08 299.44,138.72 256.84,158.06ZM500.65,188.32C518.4,178.23 553.9,158.06 578,154.69C600.64,151.53 637.69,153.01 645.25,168.14C652.82,183.28 633.77,223.63 623.4,245.49C613.79,265.75 593.41,287.53 583.04,299.3C576.96,306.2 566.44,312.81 561.18,316.11M128.52,314.76C117.16,298.43 94.43,265.76 85.86,240.36C77.5,215.55 65.11,177.22 77.13,162.31C89.15,147.41 134.44,148.71 157.98,150.94C179.64,153 205.45,168.14 218.36,175.71" style="fill:url(#_Radial5);stroke:black;stroke-width:21.02px;"/>
                <g transform="matrix(0.840907,-0,0,0.840907,547.703186,485.634796)">
                    <path d="M-68.63,-151.52L-68.72,-151.58C-68.78,-151.62 -69.22,-152.69 -70.04,-154.77C-70.86,-156.86 -71.77,-158.74 -72.77,-160.41C-73.77,-162.08 -74.92,-163.69 -76.24,-165.25C-77.55,-166.81 -79.09,-168.19 -80.85,-169.41C-82.61,-170.63 -84.34,-171.71 -86.04,-172.64C-87.74,-173.57 -89.73,-174.32 -92.03,-174.89C-94.32,-175.45 -96.5,-175.81 -98.55,-175.98C-100.61,-176.14 -102.68,-175.9 -104.76,-175.28C-106.84,-174.65 -108.81,-173.92 -110.69,-173.1C-112.57,-172.27 -114.31,-171.3 -115.92,-170.18C-117.53,-169.06 -119.09,-167.84 -120.58,-166.51C-122.08,-165.18 -123.51,-163.68 -124.86,-162.01C-126.21,-160.33 -127.48,-158.61 -128.66,-156.84L-130.44,-154.18L-132.38,-151.64C-133.68,-149.95 -134.69,-148.2 -135.42,-146.4C-136.14,-144.59 -135.44,-143.7 -133.32,-143.71C-131.2,-143.73 -129.06,-143.83 -126.88,-144.01C-124.71,-144.19 -122.56,-144.26 -120.43,-144.24C-118.3,-144.21 -116.22,-144.17 -114.2,-144.11C-112.17,-144.05 -110.14,-144.07 -108.08,-144.16C-106.03,-144.24 -104.01,-144.28 -102.01,-144.27C-100.02,-144.26 -98.79,-145.31 -98.32,-147.4C-97.86,-149.48 -97.64,-151.56 -97.66,-153.63L-114.83,-154.88L-107.77,-158.51C-106.07,-159.59 -104.27,-160.53 -102.37,-161.34C-100.46,-162.14 -99.2,-161.59 -98.6,-159.68C-98,-157.77 -97.68,-155.77 -97.66,-153.68L-97.66,-153.63M-314.73,-147.68L-314.82,-147.74C-314.88,-147.78 -315.32,-148.84 -316.14,-150.93C-316.96,-153.02 -317.87,-154.9 -318.86,-156.57C-319.86,-158.24 -321.02,-159.85 -322.33,-161.41C-323.65,-162.97 -325.19,-164.35 -326.95,-165.57C-328.7,-166.79 -330.43,-167.87 -332.13,-168.8C-333.83,-169.73 -335.83,-170.48 -338.12,-171.04C-340.42,-171.61 -342.59,-171.97 -344.65,-172.13C-346.71,-172.3 -348.78,-172.06 -350.85,-171.44C-352.93,-170.81 -354.91,-170.08 -356.79,-169.25C-358.66,-168.43 -360.4,-167.46 -362.02,-166.34C-363.63,-165.22 -365.18,-163.99 -366.68,-162.67C-368.18,-161.34 -369.6,-159.84 -370.95,-158.17C-372.3,-156.49 -373.57,-154.77 -374.75,-152.99L-376.53,-150.33L-378.47,-147.8C-379.77,-146.11 -380.78,-144.36 -381.51,-142.55C-382.24,-140.75 -381.54,-139.85 -379.42,-139.87C-377.3,-139.89 -375.15,-139.99 -372.98,-140.17C-370.81,-140.34 -368.66,-140.42 -366.53,-140.4C-364.39,-140.37 -362.31,-140.33 -360.29,-140.27C-358.27,-140.21 -356.23,-140.23 -354.18,-140.31C-352.12,-140.4 -350.1,-140.44 -348.11,-140.43C-346.11,-140.42 -344.88,-141.46 -344.41,-143.56C-343.95,-145.64 -343.73,-147.72 -343.75,-149.79L-360.93,-151.04L-353.87,-154.67C-352.17,-155.75 -350.36,-156.69 -348.46,-157.5C-346.55,-158.3 -345.3,-157.75 -344.7,-155.84C-344.09,-153.93 -343.78,-151.93 -343.75,-149.83L-343.75,-149.79M-250.16,-94.3C-246.45,-87.08 -241.77,-81.74 -227.03,-77.63C-217.29,-82.81 -213.08,-87.04 -207.57,-97.66M-271.27,-22.72C-266.29,-14.27 -253.84,-12.97 -244.92,-14.06C-228.33,-16.13 -225.93,-26.11 -223.77,-43.91L-226.09,-73.17M-223.77,-43.55C-222.76,-28.68 -210.44,-18.7 -199.23,-16.68C-189.58,-16.68 -181.81,-19.91 -175.92,-26.39" style="fill:none;stroke:black;stroke-width:15px;"/>
                </g>
            </g>
        </g>
    </g>
    <defs>
        <radialGradient id="_Radial1" cx="0" cy="0" r="1" gradientUnits="userSpaceOnUse" gradientTransform="matrix(50.873951,0,0,120.879745,813.882812,381.871094)"><stop offset="0" style="stop-color:#FFF1D7;stop-opacity:1"/><stop offset="0.01" style="stop-color:#FFF1D7;stop-opacity:1"/><stop offset="1" style="stop-color:rgb(54,47,36);stop-opacity:1"/></radialGradient>
        <radialGradient id="_Radial2" cx="0" cy="0" r="1" gradientUnits="userSpaceOnUse" gradientTransform="matrix(77.984703,0,0,128.518982,267.230469,781.140625)"><stop offset="0" style="stop-color:#FFF1D7;stop-opacity:1"/><stop offset="0.01" style="stop-color:#FFF1D7;stop-opacity:1"/><stop offset="1" style="stop-color:rgb(54,47,36);stop-opacity:1"/></radialGradient>
        <radialGradient id="_Radial3" cx="0" cy="0" r="1" gradientUnits="userSpaceOnUse" gradientTransform="matrix(50.736759,0,0,107.689339,751.96875,795.1875)"><stop offset="0" style="stop-color:#FFF1D7;stop-opacity:1"/><stop offset="0.01" style="stop-color:#FFF1D7;stop-opacity:1"/><stop offset="1" style="stop-color:rgb(54,47,36);stop-opacity:1"/></radialGradient>
        <radialGradient id="_Radial4" cx="0" cy="0" r="1" gradientUnits="userSpaceOnUse" gradientTransform="matrix(330.056915,0,0,245.14502,507.65625,685.46875)"><stop offset="0" style="stop-color:#FFF1D7;stop-opacity:1"/><stop offset="0.01" style="stop-color:#FFF1D7;stop-opacity:1"/><stop offset="1" style="stop-color:rgb(54,47,36);stop-opacity:1"/></radialGradient>
        <radialGradient id="_Radial5" cx="0" cy="0" r="1" gradientUnits="userSpaceOnUse" gradientTransform="matrix(287.42569,0,0,193.52594,359.5625,333.074219)"><stop offset="0" style="stop-color:#FFF1D7;stop-opacity:1"/><stop offset="0.01" style="stop-color:#FFF1D7;stop-opacity:1"/><stop offset="1" style="stop-color:rgb(54,47,36);stop-opacity:1"/></radialGradient>
    </defs>
</svg>
