<?xml version="1.0" encoding="UTF-8" standalone="no"?>
<!DOCTYPE svg PUBLIC "-//W3C//DTD SVG 1.1//EN" "http://www.w3.org/Graphics/SVG/1.1/DTD/svg11.dtd">
<svg width="100%" height="100%" viewBox="0 0 1024 1024" version="1.1" xmlns="http://www.w3.org/2000/svg" xmlns:xlink="http://www.w3.org/1999/xlink" xml:space="preserve" xmlns:serif="http://www.serif.com/" style="fill-rule:evenodd;clip-rule:evenodd;stroke-linecap:round;stroke-linejoin:round;stroke-miterlimit:1.5;">
    <g id="cat_sleep" transform="matrix(1.188656,0.035697,-0.035697,1.188656,-59.952688,1.812402)">
        <g id="Layer3">
            <path d="M227.217,475.824C213.675,489.366 165.921,537.119 195.247,713.073C208.779,794.262 280.61,846.449 339.952,808.982C346.745,804.693 370.349,775.768 370.349,775.768C370.349,775.768 383.26,807.504 408.246,817.454C432.761,827.218 469.028,815.444 503.166,790.473C509.298,785.988 581.969,753.923 681.523,787.108C697.137,792.313 806.011,780.429 819.498,753.455C832.89,726.671 882.55,695.121 851.468,585.194C829.569,507.745 769.461,460.723 708.445,443.854C656.647,429.534 648.084,411.842 530.088,435.441C529.67,435.524 530.088,435.441 525.04,437.124" style="fill:url(#_Radial1);stroke:black;stroke-width:21.02px;"/>
            <path d="M378.652,783.743C382.799,787.889 350.046,750.09 425.766,724.851" style="fill:none;stroke:black;stroke-width:21.02px;"/>
            <path d="M484.657,803.934C519.568,768.599 558.109,695.013 548.597,647.451" style="fill:none;stroke:black;stroke-width:21.02px;"/>
            <path d="M363.509,778.695C370.062,746.017 354.793,724.79 313.03,716.438" style="fill:none;stroke:black;stroke-width:21.02px;"/>
            <path d="M856.515,709.707C805.628,760.594 709.348,680.202 688.254,726.534C671.096,764.219 713.593,762.639 800.989,778.695C880.48,793.298 890.982,690.765 864.929,677.738L856.515,709.707Z" style="fill:url(#_Radial2);stroke:black;stroke-width:21.02px;"/>
            <path d="M736.052,601.957C724.631,608.944 701.789,622.916 690.653,638.949C676.64,659.126 657.856,700.602 651.971,723.021C647.692,739.321 652.793,762.083 655.343,773.465" style="fill:none;stroke:black;stroke-width:21.02px;"/>
        </g>
        <g transform="matrix(1,0,0,1,25.239173,235.566321)">
            <path d="M125.158,388.434C125.575,375.309 137.45,349.684 136.408,334.684C135.479,321.298 124.959,310.41 118.908,298.434C108.908,278.642 83.7,237.601 76.408,215.934C71.356,200.922 67.867,179.476 75.158,168.434C82.45,157.392 103.924,150.397 120.158,149.684C139.117,148.851 171.825,158.017 188.908,163.434C201.176,167.324 209.881,183.717 222.658,182.184C238.283,180.309 260.647,156.12 282.658,152.184C314.117,146.559 378.492,144.684 411.408,148.434C435.781,151.21 464.533,167.392 480.158,174.684C489.376,178.986 495.141,193.952 505.158,192.184C519.325,189.684 544.95,164.892 565.158,159.684C584.933,154.587 613.283,156.351 626.408,160.934C636.337,164.401 645.57,176.8 643.908,187.184C641.408,202.809 624.117,233.851 611.408,254.684C598.866,275.244 575.783,294.892 567.658,312.184C561.064,326.218 565.323,343.158 562.658,358.434C559.533,376.351 560.473,402.245 548.908,419.684C535.783,439.476 508.629,462.161 483.908,477.184C456.825,493.642 413.7,510.101 386.408,518.434C365.104,524.939 341.802,532.449 320.158,527.184C289.325,519.684 232.45,492.392 201.408,473.434C175.717,457.743 146.617,427.601 133.908,413.434C128.013,406.862 124.878,397.258 125.158,388.434Z" style="fill:url(#_Radial3);"/>
            <path d="M256.841,158.056C215.263,176.93 187.902,222.231 166.043,260.624C144.184,299.017 123.446,355.345 125.688,388.414C127.69,417.94 155.819,441.278 179.494,459.034C205.276,478.371 251.796,493.224 280.381,504.433C303.322,513.43 331.105,524.331 351.002,526.292C367.52,527.921 384.564,522.873 399.764,516.204C427.227,504.153 488.6,471.645 515.783,453.99C533.744,442.325 555.102,430.232 562.864,410.273C570.71,390.095 568.503,358.084 562.864,332.926C555.577,300.418 542.686,246.612 519.146,215.225C495.606,183.838 460.838,153.151 421.622,144.604C377.905,135.076 299.437,138.719 256.841,158.056ZM500.65,188.322C518.399,178.233 553.896,158.056 577.997,154.693C600.641,151.533 637.688,153.011 645.254,168.144C652.821,183.277 633.765,223.632 623.396,245.491C613.787,265.747 593.41,287.527 583.041,299.297C576.964,306.195 566.443,312.806 561.182,316.112M128.519,314.764C117.155,298.43 94.427,265.763 85.862,240.355C77.501,215.55 65.11,177.216 77.13,162.314C89.15,147.412 134.443,148.71 157.981,150.943C179.639,152.997 205.454,168.141 218.361,175.713" style="fill:none;stroke:black;stroke-width:21.02px;"/>
            <g transform="matrix(1,0,0,1,-25.239173,-235.566321)">
                <path d="M440.909,610.433C445.019,612.488 469.273,624.615 498.118,605.385" style="fill:none;stroke:black;stroke-width:21.02px;"/>
            </g>
            <g transform="matrix(1,0,0,1,-21.239173,-252.566321)">
                <path d="M250.773,625.577C254.898,627.226 285.477,639.458 306.3,625.577" style="fill:none;stroke:black;stroke-width:21.02px;"/>
            </g>
            <path d="M353.919,435.755C351.03,432.783 345.253,426.839 342.419,423.255C340.239,420.497 337.253,417.005 336.919,414.255C336.587,411.517 337.919,407.422 340.419,406.755C342.919,406.089 348.419,409.172 351.919,410.255C355.092,411.237 358.253,413.505 361.419,413.255C364.586,413.005 368.003,410.422 370.919,408.755C373.729,407.15 376.669,403.172 378.919,403.255C381.169,403.339 384.174,406.553 384.419,409.255C384.669,412.005 382.497,416.639 380.419,419.755C378.086,423.255 372.919,427.172 370.419,430.255C368.439,432.698 366.123,435.559 365.419,438.255C364.728,440.905 365.337,443.833 366.195,446.433C367.146,449.314 368.418,453.398 371.125,455.54C374.246,458.011 380.083,460.695 384.919,461.255C389.756,461.815 395.383,454.024 400.144,458.9C404.819,463.689 400.583,466.717 398.859,468.994C396.758,471.767 393.724,472.831 390.681,473.185C387.441,473.562 383.047,472.414 379.419,471.255C375.542,470.017 371.586,466.255 367.419,465.755C363.253,465.255 358.086,467.339 354.419,468.255C351.351,469.022 348.52,470.635 345.419,471.255C341.669,472.005 335.917,475.018 331.919,472.755C328.484,470.811 322.686,467.315 323.788,461.605C324.492,457.963 328.138,457.131 330.919,457.255C333.777,457.383 337.35,462.372 340.933,462.372C344.517,462.372 350.005,459.691 352.419,457.255C354.757,454.897 355.199,450.136 355.419,447.755"/>
        </g>
    </g>
    <defs>
        <radialGradient id="_Radial1" cx="0" cy="0" r="1" gradientUnits="userSpaceOnUse" gradientTransform="matrix(325.75715,-2.019217,1.30255,222.026559,536.22651,555.382605)"><stop offset="0" style="stop-color:rgb(255,197,90);stop-opacity:1"/><stop offset="0.64" style="stop-color:rgb(231,149,77);stop-opacity:1"/><stop offset="1" style="stop-color:rgb(189,112,76);stop-opacity:1"/></radialGradient>
        <radialGradient id="_Radial2" cx="0" cy="0" r="1" gradientUnits="userSpaceOnUse" gradientTransform="matrix(90.891995,-0.529353,0.363434,58.205903,786.673706,712.2014)"><stop offset="0" style="stop-color:rgb(255,197,90);stop-opacity:1"/><stop offset="0.64" style="stop-color:rgb(231,149,77);stop-opacity:1"/><stop offset="1" style="stop-color:rgb(189,112,76);stop-opacity:1"/></radialGradient>
        <radialGradient id="_Radial3" cx="0" cy="0" r="1" gradientUnits="userSpaceOnUse" gradientTransform="matrix(276.325647,-1.959255,1.104896,215.433355,368.167016,274.040857)"><stop offset="0" style="stop-color:rgb(255,197,90);stop-opacity:1"/><stop offset="0.64" style="stop-color:rgb(231,149,77);stop-opacity:1"/><stop offset="1" style="stop-color:rgb(189,112,76);stop-opacity:1"/></radialGradient>
    </defs>
</svg>
