<?xml version="1.0" encoding="UTF-8" standalone="no"?>
<!DOCTYPE svg PUBLIC "-//W3C//DTD SVG 1.1//EN" "http://www.w3.org/Graphics/SVG/1.1/DTD/svg11.dtd">
<svg width="100%" height="100%" viewBox="0 0 996 995" version="1.1" xmlns="http://www.w3.org/2000/svg" xmlns:xlink="http://www.w3.org/1999/xlink" xml:space="preserve" xmlns:serif="http://www.serif.com/" style="fill-rule:evenodd;clip-rule:evenodd;stroke-linecap:round;stroke-linejoin:round;stroke-miterlimit:1.5;">
    <g transform="matrix(1,0,0,1,-25.695313,-26.890936)">
        <g id="cat_walk2" transform="matrix(1.189192,0,0,1.189192,-64.929277,-97.604318)">
            <g>
                <g transform="matrix(0.912238,0.40966,-0.40966,0.912238,257.866002,-273.40214)">
                    <path d="M769.681,470.805C777.309,457.511 792.564,430.923 792.315,408.978C792.034,384.332 783.587,355.279 768,322.926C758.1,302.377 764.917,278.854 771.363,269.031C777.808,259.208 795.744,259.503 806.673,263.987C817.603,268.471 828.802,283.729 836.939,295.934C845.346,308.545 853.588,323.995 857.117,339.652C861.6,359.549 866.925,392.617 863.842,415.317C860.901,436.977 845.907,461.276 838.621,475.849C833.754,485.583 824.668,497.029 820.125,502.752M820.125,502.752C803.31,492.103 786.496,481.454 769.681,470.805" style="fill:url(#_Radial1);stroke:black;stroke-width:21.02px;"/>
                </g>
                <path d="M581.102,751.776C574.641,754.906 558.925,768.564 551.408,767.184C541.2,765.309 527.986,760.006 518.908,765.934C508.7,772.601 476.466,793.714 490.158,807.184C500.705,817.558 507.174,822.943 512.594,833.061C534.084,873.184 505.641,910.362 487.532,924.835C468.724,939.866 452.471,930.192 412.658,892.184C397.241,877.465 362.45,822.809 347.658,813.434C338.447,807.596 336.191,844.793 323.908,835.934C298.492,817.601 293.7,895.726 273.908,905.934C254.117,916.142 218.7,906.559 205.158,897.184C191.697,887.865 193.689,866.024 192.658,849.684C191.2,826.559 195.575,786.351 196.408,758.434C197.167,733.025 200.905,707.396 197.658,682.184C194.117,654.684 171.087,623.68 175.158,593.434C179.533,560.934 198.908,499.059 223.908,487.184C248.908,475.309 295.158,517.184 325.158,522.184C351.103,526.508 374.283,515.27 398.575,505.184C434.2,490.392 508.7,446.142 538.908,433.434C553.304,427.378 569.623,439.331 585.158,440.934C611.408,443.642 665.575,445.934 696.408,449.684C721.232,452.703 754.95,467.184 770.158,463.434C770.85,463.263 771.512,463.046 772.145,462.786C778.877,468.414 784.024,479.423 786.408,480.615C797.7,486.261 806.176,497.75 810.951,505.539C810.545,506.86 810.273,508.238 810.158,509.684C808.492,530.726 836.391,563.475 835.158,592.184C833.7,626.142 806.2,683.226 801.408,713.434C798.264,733.255 786.153,758.821 790.408,778.434C795.2,800.517 801.492,838.892 803.158,859.934C804.619,878.37 802.117,877.226 794.408,888.684C787.749,898.584 789.838,900.478 777.908,900.684C765.825,900.892 754.333,910.427 743.908,900.934C729.207,887.545 736.287,849.719 725.7,850.353C716.379,850.912 703.624,889.615 694.981,901.285C686.607,912.591 656.231,901.722 643.844,904.371C642.62,904.633 641.359,904.904 640.07,905.169C628.914,907.468 649.734,907.404 641.658,900.184C629.204,889.05 640.7,844.399 636.116,823.565C631.72,803.582 636.11,760.914 633.159,749.184C632.547,746.755 597.094,744.028 581.102,751.776Z" style="fill:url(#_Radial2);"/>
                <path d="M219.849,487.619C207.145,512.467 181.736,562.163 179.494,598.594C177.252,635.026 204.823,669.266 206.397,706.207C208.073,745.525 190.662,803.507 189.55,834.505C188.851,854.019 188.395,880.035 199.728,892.194C211.061,904.353 241.766,914.224 257.548,907.461C283.577,896.307 281.398,871.263 295.901,855.271C310.512,839.158 333.648,820.244 345.216,810.787" style="fill:none;stroke:black;stroke-width:21.02px;"/>
                <path d="M202.658,681.865C224.978,735.829 305.719,794.116 348.908,811.865C374.177,822.25 383.956,861.978 395.831,879.062C403.988,890.796 409.854,905.773 420.158,914.365C430.463,922.957 444.037,930.409 457.658,930.615C471.408,930.823 492.658,924.365 502.658,915.615C512.658,906.865 517.469,891.577 517.658,878.115C517.867,863.323 508.7,842.282 503.908,826.865C499.566,812.894 477.554,794.843 488.908,785.615C515.805,763.756 656.681,730.143 647.552,766.658C640.876,793.362 589.521,915.933 676.885,907.991C714.857,904.539 756.313,760.277 783.552,746.658C788.219,744.324 811.931,698.017 818.443,682.667C832.874,648.652 840.833,604.946 836.939,573.373C833.25,543.46 817.68,513.169 795.08,493.228C771.26,472.21 729.076,456.046 694.016,447.264C658.957,438.483 611.065,440.539 584.723,440.539C568.315,440.539 546.745,445.022 535.961,447.264" style="fill:none;stroke:black;stroke-width:21.02px;"/>
                <path d="M725.219,872.658C751.281,924.782 810.45,904.741 804.219,848.658C803.344,840.787 794.218,758.657 790.219,750.658" style="fill:none;stroke:black;stroke-width:21.02px;"/>
            </g>
            <g transform="matrix(0.990003,0.141048,-0.141048,0.990003,41.574016,-49.186829)">
                <path d="M125.158,388.434C125.575,375.309 137.45,349.684 136.408,334.684C135.479,321.298 124.959,310.41 118.908,298.434C108.908,278.642 83.7,237.601 76.408,215.934C71.356,200.922 67.867,179.476 75.158,168.434C82.45,157.392 103.924,150.397 120.158,149.684C139.117,148.851 171.825,158.017 188.908,163.434C201.176,167.324 209.881,183.717 222.658,182.184C238.283,180.309 260.647,156.12 282.658,152.184C314.117,146.559 378.492,144.684 411.408,148.434C435.781,151.21 464.533,167.392 480.158,174.684C489.376,178.986 495.141,193.952 505.158,192.184C519.325,189.684 544.95,164.892 565.158,159.684C584.933,154.587 613.283,156.351 626.408,160.934C636.337,164.401 645.57,176.8 643.908,187.184C641.408,202.809 624.117,233.851 611.408,254.684C598.866,275.244 575.783,294.892 567.658,312.184C561.064,326.218 565.323,343.158 562.658,358.434C559.533,376.351 560.473,402.245 548.908,419.684C535.783,439.476 508.629,462.161 483.908,477.184C456.825,493.642 413.7,510.101 386.408,518.434C365.104,524.939 341.802,532.449 320.158,527.184C289.325,519.684 232.45,492.392 201.408,473.434C175.717,457.743 146.617,427.601 133.908,413.434C128.013,406.862 124.878,397.258 125.158,388.434Z" style="fill:url(#_Radial3);"/>
                <path d="M256.841,158.056C215.263,176.93 187.902,222.231 166.043,260.624C144.184,299.017 123.446,355.345 125.688,388.414C127.69,417.94 155.819,441.278 179.494,459.034C205.276,478.371 251.796,493.224 280.381,504.433C303.322,513.43 331.105,524.331 351.002,526.292C367.52,527.921 384.564,522.873 399.764,516.204C427.227,504.153 488.6,471.645 515.783,453.99C533.744,442.325 555.102,430.232 562.864,410.273C570.71,390.095 568.503,358.084 562.864,332.926C555.577,300.418 542.686,246.612 519.146,215.225C495.606,183.838 460.838,153.151 421.622,144.604C377.905,135.076 299.437,138.719 256.841,158.056ZM500.65,188.322C518.399,178.233 553.896,158.056 577.997,154.693C600.641,151.533 637.688,153.011 645.254,168.144C652.821,183.277 633.765,223.632 623.396,245.491C613.787,265.747 593.41,287.527 583.041,299.297C576.964,306.195 566.443,312.806 561.182,316.112M128.519,314.764C117.155,298.43 94.427,265.763 85.862,240.355C77.501,215.55 65.11,177.216 77.13,162.314C89.15,147.412 134.443,148.71 157.981,150.943C179.639,152.997 205.454,168.141 218.361,175.713" style="fill:none;stroke:black;stroke-width:21.02px;"/>
                <g>
                    <path d="M491.419,341.755C489.299,337.999 485.057,330.485 479.419,328.755C472.086,326.505 457.003,322.922 447.419,328.255C440.414,332.154 434.669,339.839 430.919,345.755C427.534,351.097 425.169,359.672 424.919,363.755C424.758,366.386 427.003,369.839 429.419,370.255C431.836,370.672 435.906,366.995 439.419,366.255C444.169,365.255 451.752,364.913 457.919,364.255C464.169,363.589 474.003,364.172 476.919,362.255C479.599,360.495 476.433,355.797 475.419,352.755C474.336,349.505 472.541,345.819 470.419,342.755C468.169,339.505 461.753,334.672 461.919,333.255C462.086,331.839 468.586,333.255 471.419,334.255C474.253,335.255 477.003,337.089 478.919,339.255C480.836,341.422 481.836,344.505 482.919,347.255C484.002,350.003 483.586,355.005 485.419,355.755C487.253,356.505 491.697,353.339 493.919,351.755"/>
                    <g transform="matrix(0.99142,0.130717,-0.130717,0.99142,-155.58406,-46.068432)">
                        <path d="M491.419,341.755C489.299,337.999 485.057,330.485 479.419,328.755C472.086,326.505 457.003,322.922 447.419,328.255C440.414,332.154 434.669,339.839 430.919,345.755C427.534,351.097 425.169,359.672 424.919,363.755C424.758,366.386 427.003,369.839 429.419,370.255C431.836,370.672 435.906,366.995 439.419,366.255C444.169,365.255 451.752,364.913 457.919,364.255C464.169,363.589 474.003,364.172 476.919,362.255C479.599,360.495 476.433,355.797 475.419,352.755C474.336,349.505 472.541,345.819 470.419,342.755C468.169,339.505 461.753,334.672 461.919,333.255C462.086,331.839 468.586,333.255 471.419,334.255C474.253,335.255 477.003,337.089 478.919,339.255C480.836,341.422 481.836,344.505 482.919,347.255C484.002,350.003 483.586,355.005 485.419,355.755C487.253,356.505 491.697,353.339 493.919,351.755"/>
                    </g>
                    <path d="M353.919,435.755C351.03,432.783 345.253,426.839 342.419,423.255C340.239,420.497 337.253,417.005 336.919,414.255C336.587,411.517 337.919,407.422 340.419,406.755C342.919,406.089 348.419,409.172 351.919,410.255C355.092,411.237 358.253,413.505 361.419,413.255C364.586,413.005 368.003,410.422 370.919,408.755C373.729,407.15 376.669,403.172 378.919,403.255C381.169,403.339 384.174,406.553 384.419,409.255C384.669,412.005 382.497,416.639 380.419,419.755C378.086,423.255 372.919,427.172 370.419,430.255C368.439,432.698 366.123,435.559 365.419,438.255C364.728,440.905 365.337,443.833 366.195,446.433C367.146,449.314 368.418,453.398 371.125,455.54C374.246,458.011 380.083,460.695 384.919,461.255C389.756,461.815 395.383,454.024 400.144,458.9C404.819,463.689 400.583,466.717 398.859,468.994C396.758,471.767 393.724,472.831 390.681,473.185C387.441,473.562 383.047,472.414 379.419,471.255C375.542,470.017 371.586,466.255 367.419,465.755C363.253,465.255 358.086,467.339 354.419,468.255C351.351,469.022 348.52,470.635 345.419,471.255C341.669,472.005 335.917,475.018 331.919,472.755C328.484,470.811 322.686,467.315 323.788,461.605C324.492,457.963 328.138,457.131 330.919,457.255C333.777,457.383 337.35,462.372 340.933,462.372C344.517,462.372 350.005,459.691 352.419,457.255C354.757,454.897 355.199,450.136 355.419,447.755"/>
                </g>
            </g>
        </g>
    </g>
    <defs>
        <radialGradient id="_Radial1" cx="0" cy="0" r="1" gradientUnits="userSpaceOnUse" gradientTransform="matrix(49.057847,-1.23843,0.196159,136.173745,815.769264,341.62092)"><stop offset="0" style="stop-color:rgb(255,197,90);stop-opacity:1"/><stop offset="0.64" style="stop-color:rgb(231,149,77);stop-opacity:1"/><stop offset="1" style="stop-color:rgb(189,112,76);stop-opacity:1"/></radialGradient>
        <radialGradient id="_Radial2" cx="0" cy="0" r="1" gradientUnits="userSpaceOnUse" gradientTransform="matrix(318.469643,-2.560569,1.27341,281.551901,517.177301,598.441101)"><stop offset="0" style="stop-color:rgb(255,197,90);stop-opacity:1"/><stop offset="0.64" style="stop-color:rgb(231,149,77);stop-opacity:1"/><stop offset="1" style="stop-color:rgb(189,112,76);stop-opacity:1"/></radialGradient>
        <radialGradient id="_Radial3" cx="0" cy="0" r="1" gradientUnits="userSpaceOnUse" gradientTransform="matrix(276.325647,-1.959255,1.104896,215.433355,368.167016,274.040857)"><stop offset="0" style="stop-color:rgb(255,197,90);stop-opacity:1"/><stop offset="0.64" style="stop-color:rgb(231,149,77);stop-opacity:1"/><stop offset="1" style="stop-color:rgb(189,112,76);stop-opacity:1"/></radialGradient>
    </defs>
</svg>
