<?xml version="1.0" encoding="UTF-8" standalone="no"?>
<!DOCTYPE svg PUBLIC "-//W3C//DTD SVG 1.1//EN" "http://www.w3.org/Graphics/SVG/1.1/DTD/svg11.dtd">
<svg width="100%" height="100%" viewBox="0 0 1997 1929" version="1.1" xmlns="http://www.w3.org/2000/svg" xmlns:xlink="http://www.w3.org/1999/xlink" xml:space="preserve" xmlns:serif="http://www.serif.com/" style="fill-rule:evenodd;clip-rule:evenodd;stroke-linecap:round;stroke-linejoin:round;">
    <g id="cat_walk" transform="matrix(2.378372,0,0,2.378372,-154.650026,-312.882044)">
        <g transform="matrix(0.987379,0.158374,-0.158374,0.987379,79.991661,-117.285889)">
            <path d="M810.16,513.28C803.91,501.66 789.99,478.1 771.96,462.87C783.43,458.36 785.69,439.81 787.68,427.18C790.18,411.35 788.3,386.76 785.18,368.43C782.17,350.76 769.97,334.06 768.93,317.18C767.89,300.31 769.97,272.39 778.93,267.18C787.88,261.97 812.68,273.6 822.66,285.93C836,302.39 855.28,336.88 858.91,365.93C862.66,395.93 853.29,441.98 845.17,465.93C839.17,483.62 811.65,491.06 810.18,509.68C810.09,510.85 810.08,512.05 810.16,513.28Z" style="fill:url(#_Radial1);"/>
            <path d="M769.71,470.8C777.33,457.51 792.58,430.92 792.33,408.97C792.05,384.33 783.61,355.28 768.02,322.92C758.12,302.37 764.94,278.85 771.38,269.03C777.83,259.21 795.76,259.5 806.68,263.99C817.61,268.47 828.81,283.73 836.94,295.93C845.35,308.54 853.59,323.99 857.12,339.65C861.6,359.55 866.92,392.62 863.84,415.32C860.9,436.98 845.92,461.27 838.63,475.85C833.77,485.58 824.68,497.03 820.14,502.75M820.14,502.75C803.33,492.1 786.52,481.45 769.71,470.8" style="fill:url(#_Radial2);stroke:black;stroke-width:21.02px;"/>
        </g>
        <path d="M190.24,645.68C204.49,667.16 232.99,710.13 253.64,731.43C270.74,749.06 296.23,765.9 314.16,773.47C328.65,779.58 350.37,777.75 361.22,776.83M409.97,714.61C400.07,730.4 380.28,761.98 366.27,781.87C353.62,799.84 332.37,816.62 325.92,834C319.88,850.3 321.16,873.79 327.6,886.12C334.05,898.45 350.42,905.92 364.59,907.98C380,910.22 404.67,910.21 420.06,899.57C435.47,888.92 444.22,862.24 457.04,844.09C471.89,823.07 496.73,790 509.15,773.47C519.09,768.29 541.58,762.2 575.2,755.47C577.53,759.67 592.7,778.02 607.73,787.18C624.12,797.17 657.31,809.29 677.02,821.7C694.85,832.93 713.08,846.33 726,861.67C738.77,876.83 741.13,905.95 754.58,913.8C768.03,921.65 794.08,917.72 806.69,908.76C819.3,899.79 829.5,878.03 830.23,859.99C831.07,838.98 816.7,804.93 811.73,782.65C807.56,763.95 800.4,726.3 800.4,726.3C800.46,724.78 806.45,710.98 818.46,682.67C832.88,648.65 840.84,604.95 836.95,573.37C833.26,543.46 817.69,513.17 795.1,493.23C771.29,472.21 729.11,456.05 694.06,447.26C659.01,438.48 611.13,440.54 584.8,440.54C568.4,440.54 540.58,441.37 529.8,443.61C322.33,475.01 233.05,471.54 232.8,471.59C220.1,496.44 181.92,562.16 179.68,598.59C177.44,635.03 197.61,673.14 206.57,706.21C214.83,736.67 225.62,770.38 233.47,797.01C240.24,819.97 250,848.29 253.64,865.94C256.13,878.03 249.05,892.3 255.32,902.94C261.77,913.87 276.97,929.23 292.3,931.52C307.63,933.81 350.28,913.52 363.5,907.81M572.26,757.48C578.93,769.43 591.33,799.23 596.57,818.86C602.17,839.88 595.16,872.67 604.97,889.48C614.78,906.3 639.71,918.91 655.4,919.75C671.09,920.59 688.74,905.18 699.11,894.53C709.07,884.29 714.76,865.33 717.6,855.86" style="fill:url(#_Radial3);fill-rule:nonzero;stroke:black;stroke-width:21.02px;"/>
        <g transform="matrix(1,0,0,1,0,-0.106602)">
            <path d="M260.24,160.68C218.66,179.55 191.3,224.85 169.44,263.25C147.58,301.64 126.85,357.97 129.09,391.04C131.09,420.56 159.22,443.9 182.89,461.66C208.68,480.99 255.2,495.85 283.78,507.05C306.72,516.05 334.51,526.95 354.4,528.91C370.92,530.54 387.96,525.49 403.16,518.83C430.63,506.77 492,474.27 519.18,456.61C537.14,444.95 558.5,432.85 566.26,412.89C574.11,392.72 571.9,360.71 566.26,335.55C558.98,303.04 546.09,249.23 522.55,217.85C499.01,186.46 464.24,155.77 425.02,147.23C381.31,137.7 302.84,141.34 260.24,160.68ZM504.05,190.94C521.8,180.85 557.3,160.68 581.4,157.31C604.04,154.15 641.09,155.63 648.65,170.77C656.22,185.9 637.17,226.25 626.8,248.11C617.19,268.37 596.81,290.15 586.44,301.92C580.36,308.82 569.84,315.43 564.58,318.73M131.92,317.39C120.56,301.05 97.83,268.38 89.26,242.98C80.9,218.17 68.51,179.84 80.53,164.94C92.55,150.03 137.84,151.33 161.38,153.56C183.04,155.62 208.85,170.76 221.76,178.33" style="fill:url(#_Radial4);stroke:black;stroke-width:21.02px;"/>
            <g transform="matrix(0.840907,-0,0,0.840907,552.343323,483.037842)">
                <path d="M-68.63,-151.52L-68.72,-151.58C-68.78,-151.62 -69.22,-152.69 -70.04,-154.77C-70.86,-156.86 -71.77,-158.74 -72.77,-160.41C-73.77,-162.08 -74.92,-163.69 -76.24,-165.25C-77.55,-166.81 -79.09,-168.19 -80.85,-169.41C-82.61,-170.63 -84.34,-171.71 -86.04,-172.64C-87.74,-173.57 -89.73,-174.32 -92.03,-174.89C-94.32,-175.45 -96.5,-175.81 -98.55,-175.98C-100.61,-176.14 -102.68,-175.9 -104.76,-175.28C-106.84,-174.65 -108.81,-173.92 -110.69,-173.1C-112.57,-172.27 -114.31,-171.3 -115.92,-170.18C-117.53,-169.06 -119.09,-167.84 -120.58,-166.51C-122.08,-165.18 -123.51,-163.68 -124.86,-162.01C-126.21,-160.33 -127.48,-158.61 -128.66,-156.84L-130.44,-154.18L-132.38,-151.64C-133.68,-149.95 -134.69,-148.2 -135.42,-146.4C-136.14,-144.59 -135.44,-143.7 -133.32,-143.71C-131.2,-143.73 -129.06,-143.83 -126.88,-144.01C-124.71,-144.19 -122.56,-144.26 -120.43,-144.24C-118.3,-144.21 -116.22,-144.17 -114.2,-144.11C-112.17,-144.05 -110.14,-144.07 -108.08,-144.16C-106.03,-144.24 -104.01,-144.28 -102.01,-144.27C-100.02,-144.26 -98.79,-145.31 -98.32,-147.4C-97.86,-149.48 -97.64,-151.56 -97.66,-153.63L-114.83,-154.88L-107.77,-158.51C-106.07,-159.59 -104.27,-160.53 -102.37,-161.34C-100.46,-162.14 -99.2,-161.59 -98.6,-159.68C-98,-157.77 -97.68,-155.77 -97.66,-153.68L-97.66,-153.63M-314.73,-147.68L-314.82,-147.74C-314.88,-147.78 -315.32,-148.84 -316.14,-150.93C-316.96,-153.02 -317.87,-154.9 -318.86,-156.57C-319.86,-158.24 -321.02,-159.85 -322.33,-161.41C-323.65,-162.97 -325.19,-164.35 -326.95,-165.57C-328.7,-166.79 -330.43,-167.87 -332.13,-168.8C-333.83,-169.73 -335.83,-170.48 -338.12,-171.04C-340.42,-171.61 -342.59,-171.97 -344.65,-172.13C-346.71,-172.3 -348.78,-172.06 -350.85,-171.44C-352.93,-170.81 -354.91,-170.08 -356.79,-169.25C-358.66,-168.43 -360.4,-167.46 -362.02,-166.34C-363.63,-165.22 -365.18,-163.99 -366.68,-162.67C-368.18,-161.34 -369.6,-159.84 -370.95,-158.17C-372.3,-156.49 -373.57,-154.77 -374.75,-152.99L-376.53,-150.33L-378.47,-147.8C-379.77,-146.11 -380.78,-144.36 -381.51,-142.55C-382.24,-140.75 -381.54,-139.85 -379.42,-139.87C-377.3,-139.89 -375.15,-139.99 -372.98,-140.17C-370.81,-140.34 -368.66,-140.42 -366.53,-140.4C-364.39,-140.37 -362.31,-140.33 -360.29,-140.27C-358.27,-140.21 -356.23,-140.23 -354.18,-140.31C-352.12,-140.4 -350.1,-140.44 -348.11,-140.43C-346.11,-140.42 -344.88,-141.46 -344.41,-143.56C-343.95,-145.64 -343.73,-147.72 -343.75,-149.79L-360.93,-151.04L-353.87,-154.67C-352.17,-155.75 -350.36,-156.69 -348.46,-157.5C-346.55,-158.3 -345.3,-157.75 -344.7,-155.84C-344.09,-153.93 -343.78,-151.93 -343.75,-149.83L-343.75,-149.79M-250.16,-94.3C-246.45,-87.08 -241.77,-81.74 -227.03,-77.63C-217.29,-82.81 -213.08,-87.04 -207.57,-97.66M-271.27,-22.72C-266.29,-14.27 -253.84,-12.97 -244.92,-14.06C-228.33,-16.13 -225.93,-26.11 -223.77,-43.91L-226.09,-73.17M-223.77,-43.55C-222.76,-28.68 -210.44,-18.7 -199.23,-16.68C-189.58,-16.68 -181.81,-19.91 -175.92,-26.39" style="fill:none;stroke:black;stroke-width:15px;"/>
            </g>
        </g>
    </g>
    <defs>
        <radialGradient id="_Radial1" cx="0" cy="0" r="1" gradientUnits="userSpaceOnUse" gradientTransform="matrix(45.537964,0,0,123.687996,814.222656,389.59375)"><stop offset="0" style="stop-color:#FFF1D7;stop-opacity:1"/><stop offset="0.01" style="stop-color:#FFF1D7;stop-opacity:1"/><stop offset="1" style="stop-color:rgb(54,47,36);stop-opacity:1"/></radialGradient>
        <radialGradient id="_Radial2" cx="0" cy="0" r="1" gradientUnits="userSpaceOnUse" gradientTransform="matrix(50.862968,0,0,120.879539,813.894531,381.871094)"><stop offset="0" style="stop-color:#FFF1D7;stop-opacity:1"/><stop offset="0.01" style="stop-color:#FFF1D7;stop-opacity:1"/><stop offset="1" style="stop-color:rgb(54,47,36);stop-opacity:1"/></radialGradient>
        <radialGradient id="_Radial3" cx="0" cy="0" r="1" gradientUnits="userSpaceOnUse" gradientTransform="matrix(329.214569,0,0,245.685333,508.71875,686.015625)"><stop offset="0" style="stop-color:#FFF1D7;stop-opacity:1"/><stop offset="0.01" style="stop-color:#FFF1D7;stop-opacity:1"/><stop offset="1" style="stop-color:rgb(54,47,36);stop-opacity:1"/></radialGradient>
        <radialGradient id="_Radial4" cx="0" cy="0" r="1" gradientUnits="userSpaceOnUse" gradientTransform="matrix(287.42569,0,0,193.52594,359.5625,333.074219)"><stop offset="0" style="stop-color:#FFF1D7;stop-opacity:1"/><stop offset="0.01" style="stop-color:#FFF1D7;stop-opacity:1"/><stop offset="1" style="stop-color:rgb(54,47,36);stop-opacity:1"/></radialGradient>
    </defs>
</svg>
